<svg xmlns="http://www.w3.org/2000/svg" xmlns:xlink="http://www.w3.org/1999/xlink" width="1080" zoomAndPan="magnify" viewBox="0 0 810 809.999993" height="1080" preserveAspectRatio="xMidYMid meet" version="1.2"><defs><clipPath id="9f6a03a112"><rect x="0" width="748" y="0" height="432"/></clipPath></defs><g id="d5c5370a03"><g transform="matrix(1,0,0,1,45,162)"><g clip-path="url(#9f6a03a112)"><g style="fill:#000000;fill-opacity:1;"><g transform="translate(0.97692, 322.338428)"><path style="stroke:none" d="M 66.296875 3.609375 C 47.078125 3.609375 32.539062 -1.851562 22.6875 -12.78125 C 12.84375 -23.71875 7.921875 -39.394531 7.921875 -59.8125 L 7.921875 -74.234375 L 45.40625 -74.234375 L 45.40625 -56.9375 C 45.40625 -40.59375 52.25 -32.421875 65.9375 -32.421875 C 72.664062 -32.421875 77.769531 -34.40625 81.25 -38.375 C 84.738281 -42.34375 86.484375 -48.769531 86.484375 -57.65625 C 86.484375 -68.21875 84.078125 -77.523438 79.265625 -85.578125 C 74.460938 -93.628906 65.578125 -103.296875 52.609375 -114.578125 C 36.273438 -128.992188 24.863281 -142.023438 18.375 -153.671875 C 11.882812 -165.328125 8.640625 -178.484375 8.640625 -193.140625 C 8.640625 -213.078125 13.6875 -228.507812 23.78125 -239.4375 C 33.875 -250.363281 48.523438 -255.828125 67.734375 -255.828125 C 86.710938 -255.828125 101.066406 -250.363281 110.796875 -239.4375 C 120.523438 -228.507812 125.390625 -212.835938 125.390625 -192.421875 L 125.390625 -181.96875 L 87.921875 -181.96875 L 87.921875 -194.9375 C 87.921875 -203.582031 86.238281 -209.882812 82.875 -213.84375 C 79.507812 -217.8125 74.585938 -219.796875 68.109375 -219.796875 C 54.890625 -219.796875 48.28125 -211.75 48.28125 -195.65625 C 48.28125 -186.53125 50.742188 -178.003906 55.671875 -170.078125 C 60.597656 -162.148438 69.546875 -152.539062 82.515625 -141.25 C 99.085938 -126.832031 110.492188 -113.738281 116.734375 -101.96875 C 122.984375 -90.195312 126.109375 -76.382812 126.109375 -60.53125 C 126.109375 -39.875 121.003906 -24.019531 110.796875 -12.96875 C 100.585938 -1.914062 85.753906 3.609375 66.296875 3.609375 Z M 66.296875 3.609375 "/></g><g transform="translate(135.016709, 322.338428)"><path style="stroke:none" d="M 14.78125 -252.234375 L 73.5 -252.234375 C 93.925781 -252.234375 108.820312 -247.488281 118.1875 -238 C 127.550781 -228.507812 132.234375 -213.914062 132.234375 -194.21875 L 132.234375 -178.71875 C 132.234375 -152.539062 123.585938 -135.96875 106.296875 -129 L 106.296875 -128.28125 C 115.898438 -125.394531 122.679688 -119.503906 126.640625 -110.609375 C 130.609375 -101.722656 132.59375 -89.835938 132.59375 -74.953125 L 132.59375 -30.625 C 132.59375 -23.414062 132.832031 -17.585938 133.3125 -13.140625 C 133.800781 -8.703125 135.003906 -4.320312 136.921875 0 L 96.5625 0 C 95.125 -4.082031 94.164062 -7.925781 93.6875 -11.53125 C 93.207031 -15.132812 92.96875 -21.617188 92.96875 -30.984375 L 92.96875 -77.109375 C 92.96875 -88.640625 91.101562 -96.6875 87.375 -101.25 C 83.65625 -105.8125 77.234375 -108.09375 68.109375 -108.09375 L 54.40625 -108.09375 L 54.40625 0 L 14.78125 0 Z M 68.828125 -144.125 C 76.753906 -144.125 82.695312 -146.164062 86.65625 -150.25 C 90.625 -154.332031 92.609375 -161.179688 92.609375 -170.796875 L 92.609375 -190.25 C 92.609375 -199.382812 90.984375 -205.992188 87.734375 -210.078125 C 84.492188 -214.160156 79.390625 -216.203125 72.421875 -216.203125 L 54.40625 -216.203125 L 54.40625 -144.125 Z M 68.828125 -144.125 "/></g></g><g style="fill:#000000;fill-opacity:1;"><g transform="translate(280.226442, 322.338428)"><path style="stroke:none" d="M 14.78125 -252.234375 L 73.140625 -252.234375 C 92.835938 -252.234375 107.609375 -246.945312 117.453125 -236.375 C 127.304688 -225.800781 132.234375 -210.304688 132.234375 -189.890625 L 132.234375 -165.03125 C 132.234375 -144.613281 127.304688 -129.117188 117.453125 -118.546875 C 107.609375 -107.972656 92.835938 -102.6875 73.140625 -102.6875 L 54.40625 -102.6875 L 54.40625 0 L 14.78125 0 Z M 73.140625 -138.71875 C 79.628906 -138.71875 84.492188 -140.519531 87.734375 -144.125 C 90.984375 -147.726562 92.609375 -153.859375 92.609375 -162.515625 L 92.609375 -192.421875 C 92.609375 -201.066406 90.984375 -207.191406 87.734375 -210.796875 C 84.492188 -214.398438 79.628906 -216.203125 73.140625 -216.203125 L 54.40625 -216.203125 L 54.40625 -138.71875 Z M 73.140625 -138.71875 "/></g></g><g style="fill:#000000;fill-opacity:1;"><g transform="translate(419.31072, 322.338428)"><path style="stroke:none" d="M 14.78125 -252.234375 L 64.5 -252.234375 L 103.046875 -101.25 L 103.78125 -101.25 L 103.78125 -252.234375 L 139.09375 -252.234375 L 139.09375 0 L 98.375 0 L 50.8125 -184.125 L 50.078125 -184.125 L 50.078125 0 L 14.78125 0 Z M 14.78125 -252.234375 "/></g></g><g style="fill:#000000;fill-opacity:1;"><g transform="translate(573.16824, 322.338428)"><path style="stroke:none" d="M 45.765625 -216.203125 L 4.328125 -216.203125 L 4.328125 -252.234375 L 126.828125 -252.234375 L 126.828125 -216.203125 L 85.390625 -216.203125 L 85.390625 0 L 45.765625 0 Z M 45.765625 -216.203125 "/></g></g><g style="fill:#000000;fill-opacity:1;"><g transform="translate(678.021979, 322.338428)"><path style="stroke:none" d="M 14.78125 -38.1875 L 52.96875 -38.1875 L 52.96875 0 L 14.78125 0 Z M 14.78125 -38.1875 "/></g></g></g></g><g style="fill:#000000;fill-opacity:1;"><g transform="translate(51.057697, 553.020928)"><path style="stroke:none" d="M 3.46875 -44.546875 L 9.6875 -44.546875 L 9.6875 -25.296875 L 21.125 -25.296875 L 21.125 -44.546875 L 27.328125 -44.546875 L 27.328125 0 L 21.125 0 L 21.125 -20.84375 L 9.6875 -20.84375 L 9.6875 0 L 3.46875 0 Z M 3.46875 -44.546875 "/></g></g><g style="fill:#000000;fill-opacity:1;"><g transform="translate(84.220442, 553.020928)"><path style="stroke:none" d="M 2.46875 3.46875 C 4.675781 3.46875 6.191406 3.300781 7.015625 2.96875 C 7.835938 2.632812 8.25 2.007812 8.25 1.09375 C 8.25 0.65625 7.847656 -1.285156 7.046875 -4.734375 L 0.65625 -31.796875 L 6.59375 -31.796875 L 10.890625 -8.03125 L 15.015625 -31.796875 L 20.953125 -31.796875 L 13.359375 1.765625 C 12.847656 3.992188 11.765625 5.582031 10.109375 6.53125 C 8.460938 7.488281 6.15625 7.96875 3.1875 7.96875 L 2.46875 7.96875 Z M 2.46875 3.46875 "/></g></g><g style="fill:#000000;fill-opacity:1;"><g transform="translate(108.088856, 553.020928)"><path style="stroke:none" d="M 14.359375 0.4375 C 12.453125 0.4375 10.65625 -0.476562 8.96875 -2.3125 L 8.96875 0 L 3.078125 0 L 3.078125 -44.546875 L 8.96875 -44.546875 L 8.96875 -29.265625 C 10.6875 -31.242188 12.679688 -32.234375 14.953125 -32.234375 C 17.859375 -32.234375 19.796875 -30.992188 20.765625 -28.515625 C 21.734375 -26.046875 22.21875 -23.304688 22.21875 -20.296875 L 22.21875 -12.59375 C 22.21875 -3.90625 19.597656 0.4375 14.359375 0.4375 Z M 13.140625 -4.1875 C 14.503906 -4.1875 15.375 -4.875 15.75 -6.25 C 16.132812 -7.625 16.328125 -9.738281 16.328125 -12.59375 L 16.328125 -20.296875 C 16.328125 -22.640625 16.109375 -24.441406 15.671875 -25.703125 C 15.234375 -26.972656 14.316406 -27.609375 12.921875 -27.609375 C 11.640625 -27.609375 10.320312 -27.078125 8.96875 -26.015625 L 8.96875 -5.609375 C 10.175781 -4.660156 11.566406 -4.1875 13.140625 -4.1875 Z M 13.140625 -4.1875 "/></g></g><g style="fill:#000000;fill-opacity:1;"><g transform="translate(134.982047, 553.020928)"><path style="stroke:none" d="M 3.140625 -31.796875 L 9.015625 -31.796875 L 9.015625 -27.28125 C 10.117188 -29.070312 11.25 -30.332031 12.40625 -31.0625 C 13.5625 -31.800781 14.78125 -32.171875 16.0625 -32.171875 C 16.394531 -32.171875 16.707031 -32.15625 17 -32.125 L 17 -25.625 C 15.820312 -26.070312 14.738281 -26.296875 13.75 -26.296875 C 12.789062 -26.296875 11.9375 -26.066406 11.1875 -25.609375 C 10.4375 -25.148438 9.710938 -24.347656 9.015625 -23.203125 L 9.015625 0 L 3.140625 0 Z M 3.140625 -31.796875 "/></g></g><g style="fill:#000000;fill-opacity:1;"><g transform="translate(154.94575, 553.020928)"><path style="stroke:none" d="M 3.359375 -42.6875 L 9.234375 -42.6875 L 9.234375 -36.515625 L 3.359375 -36.515625 Z M 3.359375 -31.796875 L 9.234375 -31.796875 L 9.234375 0 L 3.359375 0 Z M 3.359375 -31.796875 "/></g></g><g style="fill:#000000;fill-opacity:1;"><g transform="translate(169.849813, 553.020928)"><path style="stroke:none" d="M 10.34375 0.4375 C 7.59375 0.4375 5.570312 -0.5625 4.28125 -2.5625 C 3 -4.5625 2.359375 -7.867188 2.359375 -12.484375 L 2.359375 -18.640625 C 2.359375 -22.859375 2.914062 -26.175781 4.03125 -28.59375 C 5.15625 -31.019531 7.203125 -32.234375 10.171875 -32.234375 C 12.046875 -32.234375 13.804688 -31.40625 15.453125 -29.75 L 15.453125 -44.546875 L 21.34375 -44.546875 L 21.34375 0 L 15.453125 0 L 15.453125 -2.03125 C 13.910156 -0.382812 12.207031 0.4375 10.34375 0.4375 Z M 11.828125 -4.1875 C 12.992188 -4.1875 14.203125 -4.585938 15.453125 -5.390625 L 15.453125 -26.234375 C 14.097656 -27.148438 12.851562 -27.609375 11.71875 -27.609375 C 9.40625 -27.609375 8.25 -25.390625 8.25 -20.953125 L 8.25 -11.984375 C 8.25 -9.421875 8.488281 -7.476562 8.96875 -6.15625 C 9.445312 -4.84375 10.398438 -4.1875 11.828125 -4.1875 Z M 11.828125 -4.1875 "/></g></g><g style="fill:#000000;fill-opacity:1;"><g transform="translate(196.468026, 553.020928)"><path style="stroke:none" d=""/></g></g><g style="fill:#000000;fill-opacity:1;"><g transform="translate(211.37209, 553.020928)"><path style="stroke:none" d="M 10.5 -44.546875 L 16.5 -44.546875 L 26.015625 0 L 20.125 0 L 18.09375 -11.21875 L 9.015625 -11.21875 L 6.875 0 L 1.046875 0 Z M 17.265625 -15.671875 L 13.53125 -35.75 L 9.84375 -15.671875 Z M 17.265625 -15.671875 "/></g></g><g style="fill:#000000;fill-opacity:1;"><g transform="translate(240.740111, 553.020928)"><path style="stroke:none" d="M 11.4375 0.4375 C 6.851562 0.4375 4.5625 -2.09375 4.5625 -7.15625 L 4.5625 -27.890625 L 1.203125 -27.890625 L 1.203125 -31.796875 L 4.5625 -31.796875 L 4.5625 -41.078125 L 10.453125 -41.078125 L 10.453125 -31.796875 L 15.5625 -31.796875 L 15.5625 -27.890625 L 10.453125 -27.890625 L 10.453125 -7.53125 C 10.453125 -6.25 10.648438 -5.347656 11.046875 -4.828125 C 11.453125 -4.316406 12.222656 -4.0625 13.359375 -4.0625 C 14.097656 -4.0625 14.816406 -4.117188 15.515625 -4.234375 L 15.515625 0.109375 C 14.046875 0.328125 12.6875 0.4375 11.4375 0.4375 Z M 11.4375 0.4375 "/></g></g><g style="fill:#000000;fill-opacity:1;"><g transform="translate(259.988855, 553.020928)"><path style="stroke:none" d="M 3.140625 -44.546875 L 9.015625 -44.546875 L 9.015625 -28.484375 C 11.660156 -30.984375 14.320312 -32.234375 17 -32.234375 C 18.71875 -32.234375 19.929688 -31.609375 20.640625 -30.359375 C 21.359375 -29.109375 21.71875 -27.566406 21.71875 -25.734375 L 21.71875 0 L 15.84375 0 L 15.84375 -24.03125 C 15.84375 -25.238281 15.65625 -26.132812 15.28125 -26.71875 C 14.914062 -27.3125 14.257812 -27.609375 13.3125 -27.609375 C 12.03125 -27.609375 10.597656 -26.910156 9.015625 -25.515625 L 9.015625 0 L 3.140625 0 Z M 3.140625 -44.546875 "/></g></g><g style="fill:#000000;fill-opacity:1;"><g transform="translate(286.772057, 553.020928)"><path style="stroke:none" d="M 3.515625 -44.546875 L 9.40625 -44.546875 L 9.40625 0 L 3.515625 0 Z M 3.515625 -44.546875 "/></g></g><g style="fill:#000000;fill-opacity:1;"><g transform="translate(301.676132, 553.020928)"><path style="stroke:none" d="M 11.765625 0.4375 C 9.304688 0.4375 7.398438 -0.0234375 6.046875 -0.953125 C 4.691406 -1.890625 3.738281 -3.273438 3.1875 -5.109375 C 2.632812 -6.941406 2.359375 -9.328125 2.359375 -12.265625 L 2.359375 -19.53125 C 2.359375 -23.925781 3.046875 -27.140625 4.421875 -29.171875 C 5.796875 -31.210938 8.242188 -32.234375 11.765625 -32.234375 C 14.335938 -32.234375 16.273438 -31.703125 17.578125 -30.640625 C 18.878906 -29.578125 19.738281 -28.082031 20.15625 -26.15625 C 20.582031 -24.226562 20.796875 -21.632812 20.796875 -18.375 L 20.796875 -15.78125 L 8.25 -15.78125 L 8.25 -9.40625 C 8.25 -7.457031 8.53125 -6.050781 9.09375 -5.1875 C 9.664062 -4.332031 10.578125 -3.90625 11.828125 -3.90625 C 13.066406 -3.90625 13.90625 -4.332031 14.34375 -5.1875 C 14.789062 -6.050781 15.015625 -7.363281 15.015625 -9.125 L 15.015625 -11.0625 L 20.734375 -11.0625 L 20.734375 -9.84375 C 20.734375 -6.507812 20.015625 -3.960938 18.578125 -2.203125 C 17.148438 -0.441406 14.878906 0.4375 11.765625 0.4375 Z M 15.015625 -18.96875 L 15.015625 -21.828125 C 15.015625 -23.992188 14.800781 -25.546875 14.375 -26.484375 C 13.957031 -27.421875 13.070312 -27.890625 11.71875 -27.890625 C 10.757812 -27.890625 10.03125 -27.664062 9.53125 -27.21875 C 9.039062 -26.78125 8.703125 -26.054688 8.515625 -25.046875 C 8.335938 -24.046875 8.25 -22.59375 8.25 -20.6875 L 8.25 -18.96875 Z M 15.015625 -18.96875 "/></g></g><g style="fill:#000000;fill-opacity:1;"><g transform="translate(327.139441, 553.020928)"><path style="stroke:none" d="M 11.4375 0.4375 C 6.851562 0.4375 4.5625 -2.09375 4.5625 -7.15625 L 4.5625 -27.890625 L 1.203125 -27.890625 L 1.203125 -31.796875 L 4.5625 -31.796875 L 4.5625 -41.078125 L 10.453125 -41.078125 L 10.453125 -31.796875 L 15.5625 -31.796875 L 15.5625 -27.890625 L 10.453125 -27.890625 L 10.453125 -7.53125 C 10.453125 -6.25 10.648438 -5.347656 11.046875 -4.828125 C 11.453125 -4.316406 12.222656 -4.0625 13.359375 -4.0625 C 14.097656 -4.0625 14.816406 -4.117188 15.515625 -4.234375 L 15.515625 0.109375 C 14.046875 0.328125 12.6875 0.4375 11.4375 0.4375 Z M 11.4375 0.4375 "/></g></g><g style="fill:#000000;fill-opacity:1;"><g transform="translate(346.388174, 553.020928)"><path style="stroke:none" d="M 11.765625 0.4375 C 9.304688 0.4375 7.398438 -0.0234375 6.046875 -0.953125 C 4.691406 -1.890625 3.738281 -3.273438 3.1875 -5.109375 C 2.632812 -6.941406 2.359375 -9.328125 2.359375 -12.265625 L 2.359375 -19.53125 C 2.359375 -23.925781 3.046875 -27.140625 4.421875 -29.171875 C 5.796875 -31.210938 8.242188 -32.234375 11.765625 -32.234375 C 14.335938 -32.234375 16.273438 -31.703125 17.578125 -30.640625 C 18.878906 -29.578125 19.738281 -28.082031 20.15625 -26.15625 C 20.582031 -24.226562 20.796875 -21.632812 20.796875 -18.375 L 20.796875 -15.78125 L 8.25 -15.78125 L 8.25 -9.40625 C 8.25 -7.457031 8.53125 -6.050781 9.09375 -5.1875 C 9.664062 -4.332031 10.578125 -3.90625 11.828125 -3.90625 C 13.066406 -3.90625 13.90625 -4.332031 14.34375 -5.1875 C 14.789062 -6.050781 15.015625 -7.363281 15.015625 -9.125 L 15.015625 -11.0625 L 20.734375 -11.0625 L 20.734375 -9.84375 C 20.734375 -6.507812 20.015625 -3.960938 18.578125 -2.203125 C 17.148438 -0.441406 14.878906 0.4375 11.765625 0.4375 Z M 15.015625 -18.96875 L 15.015625 -21.828125 C 15.015625 -23.992188 14.800781 -25.546875 14.375 -26.484375 C 13.957031 -27.421875 13.070312 -27.890625 11.71875 -27.890625 C 10.757812 -27.890625 10.03125 -27.664062 9.53125 -27.21875 C 9.039062 -26.78125 8.703125 -26.054688 8.515625 -25.046875 C 8.335938 -24.046875 8.25 -22.59375 8.25 -20.6875 L 8.25 -18.96875 Z M 15.015625 -18.96875 "/></g></g><g style="fill:#000000;fill-opacity:1;"><g transform="translate(371.851482, 553.020928)"><path style="stroke:none" d="M 10.34375 0.4375 C 7.769531 0.4375 5.6875 -0.367188 4.09375 -1.984375 C 2.5 -3.597656 1.59375 -5.757812 1.375 -8.46875 L 6.265625 -9.953125 C 6.554688 -7.898438 7.0625 -6.378906 7.78125 -5.390625 C 8.5 -4.398438 9.515625 -3.90625 10.828125 -3.90625 C 11.859375 -3.90625 12.65625 -4.207031 13.21875 -4.8125 C 13.789062 -5.414062 14.078125 -6.234375 14.078125 -7.265625 C 14.078125 -8.179688 13.875 -9.003906 13.46875 -9.734375 C 13.070312 -10.460938 12.414062 -11.210938 11.5 -11.984375 L 6.046875 -16.671875 C 4.804688 -17.734375 3.84375 -18.859375 3.15625 -20.046875 C 2.476562 -21.234375 2.140625 -22.691406 2.140625 -24.421875 C 2.140625 -26.878906 2.875 -28.796875 4.34375 -30.171875 C 5.8125 -31.546875 7.8125 -32.234375 10.34375 -32.234375 C 12.757812 -32.234375 14.65625 -31.453125 16.03125 -29.890625 C 17.40625 -28.335938 18.203125 -26.332031 18.421875 -23.875 L 14.46875 -22.390625 C 14.207031 -24.179688 13.78125 -25.546875 13.1875 -26.484375 C 12.601562 -27.421875 11.726562 -27.890625 10.5625 -27.890625 C 9.601562 -27.890625 8.835938 -27.578125 8.265625 -26.953125 C 7.703125 -26.328125 7.421875 -25.554688 7.421875 -24.640625 C 7.421875 -23.460938 7.953125 -22.398438 9.015625 -21.453125 L 14.625 -16.28125 C 16.0625 -14.957031 17.171875 -13.65625 17.953125 -12.375 C 18.742188 -11.09375 19.140625 -9.535156 19.140625 -7.703125 C 19.140625 -5.054688 18.347656 -3.035156 16.765625 -1.640625 C 15.191406 -0.253906 13.050781 0.4375 10.34375 0.4375 Z M 10.34375 0.4375 "/></g></g><g style="fill:#000000;fill-opacity:1;"><g transform="translate(394.729983, 553.020928)"><path style="stroke:none" d="M 2.6875 -6.546875 L 8.578125 -6.546875 L 8.578125 0 L 2.6875 0 Z M 2.6875 -6.546875 "/></g></g></g></svg>